<svg xmlns="http://www.w3.org/2000/svg" width="1000" height="1000" viewBox="0 0 1000 1000">
  <defs>
    <style>
      .cls-1 {
        fill: #373a3c;
        fill-rule: evenodd;
      }
    </style>
  </defs>
  <path id="Rounded_Rectangle_1" data-name="Rounded Rectangle 1" class="cls-1" d="M30,168.337H970a30,30,0,0,1,30,30V801.663a30,30,0,0,1-30,30H30a30,30,0,0,1-30-30V198.337A30,30,0,0,1,30,168.337Zm174.409,66.132S193.883,367.735,69.138,367.735v264.53s136.273,7.313,136.273,137.274H799.6s-0.888-137.274,132.265-137.274V368.737s-135.271-7.1-135.271-137.274Z"/>
  <path class="cls-1" d="M500,284c91.989,0,166.561,96.354,166.561,215.212S591.989,714.424,500,714.424,333.439,618.07,333.439,499.212,408.011,284,500,284Zm-25,66-77,71,38,42,31-27,1,144H402v54H600V583H532V351Z"/>
</svg>
