<svg xmlns="http://www.w3.org/2000/svg" width="1000" height="1000" viewBox="0 0 1000 1000">
  <defs>
    <style>
      .cls-1 {
        fill: #373a3c;
        fill-rule: evenodd;
      }
    </style>
  </defs>
  <path class="cls-1" d="M244,183l-13-48s-4.1-26.831-31-27H31S2,115.923,2,137c0,0-1.661,44,36,44H163L272,678l-39,72s-4.5,34.62,23,42l23,2H895s27-4.7,27-34c0,0,7.166-29.574-32-41H336l13-36-9-42,629-79s31,1.057,31-41V218s-6.312-36-43-36Z"/>
  <path id="Ellipse_1_copy" data-name="Ellipse 1 copy" class="cls-1" d="M845.543,792.594a77.2,77.2,0,1,1-77.2,77.2A77.2,77.2,0,0,1,845.543,792.594Z"/>
  <path class="cls-1" d="M309.543,792.594a77.2,77.2,0,1,1-77.2,77.2A77.2,77.2,0,0,1,309.543,792.594Z"/>
</svg>
