<svg xmlns="http://www.w3.org/2000/svg" width="1000" height="1000" viewBox="0 0 1000 1000">
  <defs>
    <style>
      .cls-1 {
        fill: #373a3c;
        fill-rule: evenodd;
      }
    </style>
  </defs>
  <path class="cls-1" d="M500,0c276.142,0,500,223.858,500,500s-223.858,500-500,500S0,776.142,0,500,223.858,0,500,0ZM353,299v80s102.077-49.226,177-12c0,0,45.607,29.277,6,85l-36,34s-85.93,51.475-74,126h96s-11.981-43.7,37-77l29-24s67.357-48.372,60-113c0,0,.773-68.462-53-100C595,298,504.016,236.493,353,299Zm71,362v68h98V660Z"/>
</svg>
