<svg xmlns="http://www.w3.org/2000/svg" width="1000" height="1000" viewBox="0 0 1000 1000">
  <defs>
    <style>
      .cls-1 {
        fill: #373a3c;
        fill-rule: evenodd;
      }
    </style>
  </defs>
  <path class="cls-1" d="M974,97H367s-30,2.084-30,30V243H240s-37.039,2.936-58,26L62,393s-19.948,11.511-20,73V687H29S6,691.81,6,724c0,0-.747,31,37,31h73S103.969,888.378,268,905c0,0,134.51-4.553,145-146H631S618.061,899.847,799,904c0,0,120.417-15.22,128-145h50s24-6.147,24-38V124S997.192,97.282,974,97ZM336,317V465H119V438L238,319ZM261,682s75-1.393,75,75c0,0-1.029,75-67,75,0,0-80,.429-80-74C189,758,192.6,682,261,682Zm516,0s76,3.012,76,79c0,0-5.341,70-67,70,0,0-82,4.335-82-72C704,759,704.916,682,777,682Z"/>
</svg>
