<svg xmlns="http://www.w3.org/2000/svg" width="1000" height="1000" viewBox="0 0 1000 1000">
  <defs>
    <style>
      .cls-1 {
        fill: #fff;
        fill-rule: evenodd;
      }
    </style>
  </defs>
  <path class="cls-1" d="M388,135l-2.483,1.113L330,161,217,82,87,216l80,108-24,61L1,409V584l139,28,27,62L86,779,221,911l108-77,58,25,24,136,175-1,30-133,58-27,111,79L913,777,836,674l26-62,135-21,1-181L862,389l-26-65,76-107L778,82,674,168l-60-28L590-2,410-1m89,331s-164,2.415-164,177c0,0,9.1,159,163,159,0,0,167-2.5,167-162C665,504,660.614,330,499,330Z"/>
</svg>
